<?xml version="1.0" encoding="UTF-8"?>
<svg enable-background="new 0 0 4201.681 1248.499" style="height:auto;width:110%" version="1.1" viewBox="0 0 4201.7 1248.5" xml:space="preserve" xmlns="http://www.w3.org/2000/svg">
<g>
<g fill="#2C59A5">
<path d="m2473.5 937.6c-2.525-2.767-5.727-4.961-9.5-6.539-3.804-1.594-8.223-2.391-13.169-2.391-11.499 0-21.015 3.473-28.29 10.327-7.246 6.825-12.146 16.746-14.597 29.494l-2.029 10.943c-0.632 3.532-0.947 6.869-0.947 9.937 0 5.501 0.932 10.252 2.796 14.115 1.864 3.818 4.345 6.989 7.381 9.425 3.021 2.405 6.509 4.18 10.372 5.277 3.818 1.066 7.772 1.607 11.741 1.607 5.291 0 10.102-0.24 14.311-0.706 4.209-0.481 8.688-1.143 13.243-1.97 1.759-0.271 2.932-0.781 3.638-1.578 0.661-0.736 1.112-1.789 1.383-3.262l0.947-5.322c0.271-1.593-0.256-2.54-0.752-3.051-0.842-0.857-2.119-1.158-3.968-0.902-3.428 0.496-7.592 0.978-12.718 1.458-4.721 0.466-9.455 0.707-14.056 0.707-5.682 0-10.146-1.218-13.273-3.593-3.066-2.3-4.555-6.088-4.555-11.575 0-2.57 0.315-5.697 0.917-9.274l0.105-0.587h51.305c2.045 0 3.112-0.826 3.653-1.548 0.616-0.827 1.022-1.85 1.293-3.142l1.232-6.539c0.662-3.308 0.978-6.555 0.978-9.666 0-4.224-0.602-8.223-1.804-11.876-1.217-3.756-3.112-7.048-5.637-9.769zm-40.347 12.868c1.984-2.134 4.314-3.803 6.915-4.945 2.601-1.173 5.547-1.759 8.733-1.759 10.463 0 15.333 4.78 15.333 15.018 0 2.345-0.285 4.976-0.826 7.832h-38.213c0.707-3.021 1.684-5.863 2.947-8.494 1.368-2.917 3.082-5.487 5.111-7.652z"/>
<path d="m2529.8 964.12h-31.072c-1.202 0-2.3 0.391-3.172 1.128-0.901 0.751-1.487 1.714-1.773 2.946l-1.112 6.358v0.466c0 2.33 1.503 3.713 4.028 3.713h31.072c2.736 0 4.495-1.383 4.945-3.908l1.098-6.088 0.015-0.736c-1e-3 -2.391-1.534-3.879-4.029-3.879z"/>
<path d="m2598.8 929.77h-15.047l2.48-15.107c0.315-1.218 0.21-2.3-0.286-3.231-0.466-0.812-1.458-1.729-3.772-1.309l-8.268 1.248c-2.631 0.391-4.3 1.954-4.721 4.389l-2.27 14.011h-13.71c-1.112 0-2.104 0.256-2.962 0.767-1.021 0.586-1.684 1.699-1.983 3.292l-0.752 4.119c-0.48 1.894 0.376 2.991 0.933 3.487 0.781 0.691 1.758 1.112 2.871 1.232l13.093 1.533-9.29 52.899c-0.195 1.277-0.376 2.375-0.467 3.262-0.104 0.947-0.164 1.97-0.164 3.066 0 5.968 2.028 10.268 6.043 12.777 3.787 2.391 8.523 3.593 14.07 3.593 1.503 0 3.156-0.075 4.976-0.24 1.788-0.15 3.487-0.331 5.126-0.557 1.503-0.271 2.525-0.721 3.156-1.397 0.616-0.602 1.067-1.413 1.383-2.556l0.917-5.486c0.316-1.443-0.12-2.346-0.54-2.856-0.646-0.812-1.715-1.218-3.157-1.218h-9.516c-2.826 0-4.194-0.361-4.841-0.646-0.511-0.226-0.812-1.277-0.812-2.811 0-0.992 0.15-2.436 0.451-4.239l9.455-53.396h15.573c1.022 0 1.984-0.195 2.901-0.601 1.203-0.557 1.924-1.819 2.21-3.788l0.932-5.352c0.241-1.533-0.029-2.751-0.781-3.623-0.72-0.841-1.802-1.262-3.231-1.262z"/>
<path d="m2637.1 897.3h-7.967c-1.578 0-2.826 0.466-3.713 1.428-0.736 0.827-1.263 1.789-1.549 2.962l-2.149 12.386c-0.315 1.219-0.18 2.33 0.392 3.338 0.45 0.767 1.442 1.684 3.592 1.684h7.967c1.654 0 2.842-0.346 3.684-1.082 0.781-0.722 1.293-1.789 1.578-3.293l2.18-12.537c0.24-1.533-0.029-2.75-0.781-3.622-0.723-0.843-1.805-1.264-3.234-1.264z"/>
<path d="m2631 929.77h-7.501c-1.007 0-1.984 0.195-2.931 0.586-1.264 0.542-2.045 1.834-2.33 3.804l-13.86 79.506c-0.315 1.248-0.181 2.375 0.406 3.352 0.45 0.768 1.428 1.684 3.577 1.684h7.502c1.848 0 3.171-0.51 3.953-1.548 0.602-0.812 1.037-1.729 1.308-2.841l13.89-79.627c0.301-1.804 0-3.126-0.872-3.893-0.767-0.677-1.818-1.023-3.142-1.023z"/>
<path d="m2709.1 930.44c-2.586-0.541-5.593-0.977-8.915-1.277-3.412-0.316-6.975-0.481-10.612-0.481-11.049 0-20.309 3.308-27.539 9.847-7.171 6.509-11.906 16.4-14.056 29.373l-2.059 12.206c-0.211 1.474-0.406 2.916-0.572 4.359-0.15 1.458-0.225 2.932-0.225 4.45 0 4.313 0.602 8.388 1.804 12.101 1.202 3.772 3.036 7.08 5.427 9.831 2.42 2.781 5.486 4.976 9.109 6.569 3.668 1.593 7.922 2.39 12.657 2.39 3.562 0 7.2-0.15 10.838-0.466 3.519-0.315 6.645-0.751 9.23-1.277 1.548-0.241 2.676-0.692 3.457-1.384 0.767-0.706 1.278-1.788 1.563-3.307l0.917-5.502c0.437-1.698-0.12-2.766-0.662-3.367-1.202-1.293-3.231-0.977-3.817-0.887-3.397 0.421-6.569 0.706-9.44 0.856-2.826 0.15-6.118 0.241-10.057 0.241-4.66 0-8.253-1.158-10.658-3.397-2.375-2.255-3.577-6.148-3.577-11.62 0-2.496 0.315-5.547 0.932-9.109l2.029-12.177c1.293-7.771 3.999-13.904 8.027-18.249 3.999-4.299 8.778-6.389 14.642-6.389 3.938 0 7.155 0.09 9.831 0.24 2.721 0.15 5.758 0.437 8.989 0.842 1.999 0.286 3.412 0 4.179-0.871 0.602-0.677 1.022-1.519 1.323-2.736l0.917-5.577c0.285-1.338 0.256-2.405-0.075-3.231-0.586-1.4-2.285-1.821-3.607-2.001z"/>
<path d="m2788.7 932.31c-3.984-1.052-8.464-1.924-13.289-2.6-9.846-1.398-19.542-1.624-28.411 0.812-4.569 1.263-8.764 3.352-12.462 6.208-3.743 2.856-7.005 6.689-9.696 11.364-2.675 4.675-4.675 10.538-5.952 17.438l-2.811 15.438c-0.646 3.412-0.963 6.674-0.963 9.666 0 4.915 0.677 9.26 2.044 12.942 1.384 3.683 3.263 6.765 5.577 9.125 2.346 2.39 5.142 4.194 8.299 5.366 3.156 1.157 6.523 1.729 9.98 1.729 2.736 0 5.126-0.18 7.291-0.571 2.18-0.376 4.314-0.991 6.329-1.804 1.983-0.812 3.983-1.818 5.968-2.991 1.066-0.632 2.21-1.353 3.442-2.194l-0.196 1.217c-0.27 1.533-0.165 2.706 0.316 3.608 0.616 1.082 1.804 1.638 3.532 1.638h6.254c1.743 0 3.021-0.51 3.803-1.548 0.602-0.812 1.037-1.729 1.308-2.841l13.409-76.62c0.285-1.383 0.226-2.465-0.226-3.367-0.495-0.962-1.652-1.608-3.546-2.015zm-14.342 12.237-9.14 52.192c-4.104 2.69-7.831 4.78-11.094 6.208-3.322 1.474-6.734 2.226-10.146 2.226-3.397 0-6.193-1.053-8.568-3.202-2.315-2.09-3.487-5.953-3.487-11.5 0-1.097 0.06-2.255 0.165-3.457 0.105-1.203 0.241-2.346 0.451-3.457l2.811-16.07c1.398-7.997 4.149-14.1 8.163-18.158 3.953-3.999 9.831-6.028 17.482-6.028 3.277 0 6.073 0.165 8.298 0.45 1.773 0.24 3.457 0.511 5.065 0.796z"/>
<path d="m2854.5 933.4c0.405-1.563-0.031-2.646-0.467-3.292-0.691-0.963-1.938-1.429-4.148-1.429-3.713 0-7.562 0.481-11.455 1.458-2.991 0.737-6.178 2.225-9.471 4.42 0.226-1.157 0.03-2.24-0.586-3.187-0.511-0.722-1.488-1.594-3.307-1.594h-7.336c-1.218 0-2.33 0.437-3.322 1.338-0.887 0.827-1.473 1.819-1.789 3.052l-13.859 79.506c-0.331 1.277-0.105 2.48 0.646 3.502 0.767 1.008 1.863 1.533 3.187 1.533h7.637c1.202 0 2.329-0.436 3.353-1.307 0.977-0.857 1.623-1.85 1.894-2.977l11.305-64.835c3.502-2.119 6.765-3.622 9.71-4.464 3.112-0.888 6.885-1.354 11.215-1.354h0.466c3.968 0 4.991-2.45 5.261-3.924l1.066-6.446z"/>
<path d="m2920.9 937.6c-2.525-2.767-5.728-4.961-9.501-6.539-3.803-1.594-8.223-2.391-13.168-2.391-11.5 0-21.016 3.473-28.291 10.327-7.245 6.825-12.146 16.746-14.596 29.494l-2.03 10.943c-0.631 3.532-0.946 6.869-0.946 9.937 0 5.501 0.932 10.252 2.796 14.115 1.864 3.818 4.345 6.989 7.381 9.425 3.021 2.405 6.509 4.18 10.372 5.277 3.818 1.066 7.771 1.607 11.74 1.607 5.291 0 10.102-0.24 14.311-0.706 4.209-0.481 8.689-1.143 13.244-1.97 1.759-0.271 2.931-0.781 3.638-1.578 0.661-0.736 1.112-1.789 1.383-3.262l0.947-5.322c0.271-1.593-0.256-2.54-0.752-3.051-0.827-0.857-2.104-1.158-3.969-0.902-3.427 0.496-7.591 0.978-12.717 1.458-4.72 0.466-9.455 0.707-14.056 0.707-5.682 0-10.146-1.218-13.273-3.593-3.066-2.3-4.555-6.088-4.555-11.575 0-2.57 0.315-5.697 0.917-9.274l0.104-0.587h51.307c2.044 0 3.111-0.826 3.652-1.548 0.616-0.827 1.021-1.85 1.293-3.142l1.232-6.539c0.661-3.308 0.977-6.555 0.977-9.666 0-4.224-0.601-8.223-1.803-11.876-1.218-3.756-3.112-7.048-5.637-9.769zm-40.347 12.868c1.984-2.134 4.314-3.803 6.915-4.945 2.601-1.173 5.546-1.759 8.733-1.759 10.463 0 15.333 4.78 15.333 15.018 0 2.345-0.286 4.976-0.826 7.832h-38.213c0.707-3.021 1.684-5.863 2.946-8.494 1.369-2.917 3.083-5.487 5.112-7.652z"/>
<path d="m2988 929.77h-15.048l2.48-15.107c0.315-1.218 0.21-2.3-0.285-3.231-0.466-0.812-1.458-1.729-3.773-1.309l-8.269 1.248c-2.63 0.391-4.299 1.954-4.72 4.389l-2.27 14.011h-13.71c-1.112 0-2.104 0.256-2.961 0.767-1.022 0.586-1.684 1.699-1.984 3.292l-0.752 4.119c-0.48 1.894 0.376 2.991 0.933 3.487 0.781 0.691 1.759 1.112 2.871 1.232l13.093 1.533-9.29 52.899c-0.195 1.277-0.376 2.375-0.466 3.262-0.104 0.947-0.165 1.97-0.165 3.066 0 5.968 2.029 10.268 6.043 12.777 3.788 2.391 8.523 3.593 14.07 3.593 1.503 0 3.156-0.075 4.976-0.24 1.789-0.15 3.487-0.331 5.126-0.557 1.503-0.271 2.525-0.721 3.157-1.397 0.616-0.602 1.066-1.413 1.383-2.556l0.917-5.486c0.315-1.443-0.12-2.346-0.542-2.856-0.646-0.812-1.713-1.218-3.156-1.218h-9.516c-2.826 0-4.193-0.361-4.84-0.646-0.512-0.226-0.812-1.277-0.812-2.811 0-0.992 0.15-2.436 0.451-4.239l9.455-53.396h15.574c1.022 0 1.984-0.195 2.901-0.601 1.202-0.557 1.923-1.819 2.209-3.788l0.933-5.352c0.24-1.533-0.03-2.751-0.782-3.623-0.721-0.841-1.803-1.262-3.231-1.262z"/>
<path d="m3020.2 929.77h-7.502c-1.007 0-1.984 0.195-2.931 0.586-1.263 0.542-2.045 1.834-2.33 3.804l-13.86 79.506c-0.315 1.248-0.18 2.375 0.406 3.352 0.451 0.768 1.428 1.684 3.578 1.684h7.501c1.849 0 3.172-0.51 3.953-1.548 0.602-0.812 1.037-1.729 1.308-2.841l13.891-79.627c0.301-1.804 0-3.126-0.873-3.893-0.766-0.677-1.819-1.023-3.141-1.023z"/>
<path d="m3026.3 897.3h-7.968c-1.578 0-2.825 0.466-3.712 1.428-0.737 0.827-1.264 1.789-1.549 2.962l-2.149 12.386c-0.315 1.219-0.181 2.33 0.391 3.338 0.45 0.767 1.443 1.684 3.593 1.684h7.967c1.654 0 2.841-0.346 3.684-1.082 0.781-0.722 1.292-1.789 1.578-3.293l2.18-12.537c0.24-1.533-0.03-2.75-0.782-3.622-0.724-0.843-1.806-1.264-3.233-1.264z"/>
<path d="m3104.7 936.24c-2.029-2.36-4.66-4.225-7.832-5.562s-6.975-1.999-11.304-1.999c-5.441 0-10.252 0.767-14.28 2.285-2.947 1.112-5.938 2.45-8.9 3.969l0.031-0.271c0.225-1.459-0.045-2.631-0.797-3.503-0.781-0.917-2.029-1.383-3.684-1.383h-6.554c-1.939 0-3.322 0.496-4.149 1.474-0.661 0.796-1.127 1.743-1.428 2.916l-13.845 79.461c-0.33 1.143-0.165 2.3 0.466 3.322 0.481 0.812 1.459 1.758 3.353 1.758h7.636c1.203 0 2.33-0.436 3.353-1.307 0.978-0.857 1.624-1.85 1.925-3.082l11.409-65.09c4.57-2.15 8.418-3.608 11.454-4.314 3.202-0.752 6.284-1.143 9.17-1.143 5.262 0 8.779 0.902 10.448 2.646 1.683 1.789 2.54 4.359 2.54 7.682 0 1.202-0.075 2.54-0.225 3.983-0.166 1.488-0.347 2.946-0.542 4.345l-9.02 51.245c-0.331 1.277-0.105 2.48 0.646 3.502 0.542 0.707 1.548 1.533 3.337 1.533h7.501c1.203 0 2.315-0.436 3.337-1.292 0.978-0.842 1.609-1.849 1.924-3.097l9.051-51.351c0.525-2.962 0.797-5.893 0.797-8.704 0-3.472-0.467-6.779-1.384-9.815-0.946-3.096-2.434-5.863-4.434-8.208z"/>
<path d="m3235.6 937.6c-2.525-2.767-5.728-4.961-9.501-6.539-3.803-1.594-8.223-2.391-13.168-2.391-11.5 0-21.016 3.473-28.291 10.327-7.246 6.825-12.146 16.746-14.596 29.494l-2.029 10.943c-0.632 3.532-0.947 6.869-0.947 9.937 0 5.501 0.932 10.252 2.795 14.115 1.865 3.818 4.346 6.989 7.382 9.425 3.021 2.405 6.509 4.18 10.372 5.277 3.818 1.066 7.771 1.607 11.74 1.607 5.291 0 10.102-0.24 14.311-0.706 4.209-0.481 8.689-1.143 13.244-1.97 1.758-0.271 2.931-0.781 3.637-1.578 0.662-0.736 1.113-1.789 1.384-3.262l0.946-5.322c0.271-1.593-0.255-2.54-0.751-3.051-0.842-0.857-2.119-1.158-3.969-0.902-3.427 0.496-7.591 0.978-12.717 1.458-4.721 0.466-9.456 0.707-14.056 0.707-5.682 0-10.146-1.218-13.273-3.593-3.066-2.3-4.555-6.088-4.555-11.575 0-2.57 0.315-5.697 0.917-9.274l0.104-0.587h51.307c2.043 0 3.111-0.826 3.652-1.548 0.615-0.827 1.021-1.85 1.293-3.142l1.232-6.539c0.661-3.308 0.977-6.555 0.977-9.666 0-4.224-0.602-8.223-1.804-11.876-1.217-3.756-3.111-7.048-5.636-9.769zm-40.347 12.868c1.984-2.134 4.314-3.803 6.914-4.945 2.602-1.173 5.547-1.759 8.734-1.759 10.463 0 15.332 4.78 15.332 15.018 0 2.345-0.285 4.976-0.826 7.832h-38.212c0.707-3.021 1.684-5.863 2.946-8.494 1.369-2.917 3.083-5.487 5.112-7.652z"/>
<path d="m3323.9 936.24c-2.028-2.36-4.66-4.225-7.832-5.562-3.171-1.338-6.975-1.999-11.304-1.999-5.442 0-10.252 0.767-14.281 2.285-2.946 1.112-5.938 2.45-8.898 3.969l0.029-0.271c0.226-1.459-0.045-2.631-0.797-3.503-0.781-0.917-2.029-1.383-3.683-1.383h-6.554c-1.939 0-3.322 0.496-4.149 1.474-0.661 0.796-1.127 1.743-1.429 2.916l-13.844 79.461c-0.33 1.143-0.166 2.3 0.467 3.322 0.48 0.812 1.457 1.758 3.352 1.758h7.637c1.202 0 2.33-0.436 3.352-1.307 0.977-0.857 1.623-1.85 1.924-3.082l11.41-65.09c4.569-2.15 8.418-3.608 11.454-4.314 3.202-0.752 6.284-1.143 9.17-1.143 5.261 0 8.778 0.902 10.447 2.646 1.684 1.789 2.54 4.359 2.54 7.682 0 1.202-0.074 2.54-0.225 3.983-0.166 1.488-0.346 2.946-0.541 4.345l-9.02 51.245c-0.33 1.277-0.105 2.48 0.646 3.502 0.541 0.707 1.548 1.533 3.337 1.533h7.501c1.203 0 2.314-0.436 3.338-1.292 0.977-0.842 1.607-1.849 1.924-3.097l9.049-51.351c0.526-2.962 0.797-5.893 0.797-8.704 0-3.472-0.466-6.779-1.383-9.815-0.946-3.096-2.435-5.863-4.434-8.208z"/>
<path d="m3457.7 932.31c-3.983-1.052-8.463-1.924-13.289-2.6-9.846-1.398-19.557-1.624-28.41 0.812-4.57 1.263-8.764 3.352-12.462 6.208-3.743 2.856-7.005 6.689-9.696 11.364-2.676 4.675-4.675 10.538-5.953 17.438l-2.811 15.438c-0.646 3.412-0.962 6.674-0.962 9.666 0 4.915 0.677 9.26 2.044 12.942 1.383 3.683 3.263 6.765 5.578 9.125 2.345 2.39 5.141 4.194 8.297 5.366 3.157 1.157 6.524 1.729 9.981 1.729 2.736 0 5.126-0.18 7.291-0.571 2.18-0.376 4.314-0.991 6.329-1.804 1.984-0.812 3.982-1.818 5.967-2.991 1.068-0.632 2.211-1.353 3.443-2.194l-0.196 1.217c-0.271 1.533-0.165 2.706 0.316 3.608 0.616 1.082 1.804 1.638 3.532 1.638h6.254c1.743 0 3.021-0.51 3.803-1.548 0.602-0.812 1.037-1.729 1.308-2.841l13.409-76.62c0.285-1.383 0.226-2.465-0.226-3.367-0.495-0.962-1.653-1.608-3.547-2.015zm-14.34 12.237-9.141 52.192c-4.104 2.69-7.832 4.78-11.094 6.208-3.322 1.474-6.734 2.226-10.146 2.226-3.397 0-6.193-1.053-8.568-3.202-2.315-2.09-3.488-5.953-3.488-11.5 0-1.097 0.061-2.255 0.166-3.457 0.105-1.203 0.24-2.346 0.451-3.457l2.811-16.07c1.398-7.997 4.149-14.1 8.162-18.158 3.954-3.999 9.832-6.028 17.482-6.028 3.277 0 6.074 0.165 8.299 0.45 1.773 0.24 3.457 0.511 5.066 0.796z"/>
<path d="m3541.1 929.77h-10.613c-1.773 0-3.307 0.632-4.479 1.819l-32.545 30.41 10.432-58.807c0.301-1.533 0.09-2.751-0.646-3.638-0.721-0.887-1.85-1.323-3.352-1.323h-7.502c-1.202 0-2.33 0.437-3.352 1.309-0.947 0.826-1.594 1.818-1.91 3.081l-19.481 111.04c-0.331 1.277-0.104 2.48 0.646 3.502 0.542 0.707 1.548 1.533 3.337 1.533h8.269c1.323 0 2.42-0.525 3.187-1.548 0.602-0.812 1.037-1.729 1.308-2.841l5.894-33.838 23.449 35.19c0.768 1.157 1.639 1.984 2.602 2.436 0.856 0.405 1.834 0.601 2.9 0.601h9.064c1.488 0 2.361-0.691 2.856-1.292 0.571-0.737 0.856-1.563 0.856-2.421 0-0.721-0.225-1.442-0.721-2.284l-27.524-40.406 39.521-36.318c0.916-0.932 1.367-1.984 1.367-3.111 0-1.504-0.932-3.098-3.563-3.098z"/>
<path d="m3575 929.77h-7.502c-1.201 0-2.314 0.437-3.336 1.293-0.963 0.842-1.609 1.834-1.925 3.097l-13.905 79.882v0.631c0 2.525 1.504 4.028 4.029 4.028h7.501c1.202 0 2.315-0.436 3.337-1.292 0.979-0.842 1.609-1.849 1.925-3.097l13.89-79.611 0.016-0.902c0-2.526-1.504-4.029-4.03-4.029z"/>
<path d="m3620.9 898.24h-8.118c-1.999 0-3.067 0.767-3.623 1.428-0.631 0.797-1.067 1.715-1.323 2.812l-19.48 111.19c-0.316 1.263-0.151 2.405 0.51 3.442 0.723 1.052 1.82 1.593 3.157 1.593h8.117c1.774 0 3.036-0.525 3.773-1.607 0.541-0.797 0.917-1.714 1.173-2.781l19.512-111.25c0.315-1.519 0.105-2.722-0.602-3.578-0.676-0.828-1.713-1.249-3.096-1.249z"/>
<path d="m3660.5 898.24h-8.117c-2 0-3.066 0.767-3.623 1.428-0.631 0.797-1.066 1.715-1.322 2.812l-19.482 111.19c-0.315 1.263-0.15 2.405 0.512 3.442 0.721 1.052 1.818 1.593 3.156 1.593h8.117c1.773 0 3.037-0.525 3.773-1.607 0.541-0.797 0.917-1.714 1.172-2.781l19.513-111.25c0.315-1.519 0.104-2.722-0.602-3.578-0.677-0.828-1.714-1.249-3.097-1.249z"/>
<path d="m3694.4 929.77h-7.501c-1.203 0-2.315 0.437-3.338 1.293-0.962 0.842-1.608 1.834-1.924 3.097l-13.904 79.882v0.631c0 2.525 1.503 4.028 4.028 4.028h7.501c1.203 0 2.314-0.436 3.337-1.292 0.978-0.842 1.608-1.849 1.925-3.097l13.889-79.611 0.016-0.902c0-2.526-1.503-4.029-4.029-4.029z"/>
<path d="m3770.9 930.72-4.689-0.856c-1.504-0.256-3.127-0.481-4.871-0.632-1.759-0.165-3.697-0.286-5.863-0.392-2.148-0.104-4.75-0.165-7.801-0.165-3.984 0-8.013 0.376-11.996 1.112-3.998 0.768-7.621 2.09-10.748 3.939-3.202 1.894-5.832 4.389-7.832 7.426-2.074 3.097-3.111 7.035-3.111 11.695 0 4.555 1.172 8.628 3.487 12.101 2.255 3.367 5.667 6.554 10.161 9.485l14.131 9.199c4.209 2.826 6.073 4.66 6.87 5.683 1.037 1.323 1.563 2.721 1.563 4.119 0 2.21-0.436 4.089-1.277 5.562-0.857 1.474-1.984 2.661-3.383 3.518-1.428 0.887-3.157 1.549-5.156 1.984-3.246 0.736-6.389 0.781-11.364 0.526-1.97-0.105-4.073-0.241-6.284-0.392-2.225-0.165-4.419-0.346-6.613-0.556-2.164-0.195-4.18-0.405-5.983-0.602-1.789-0.255-3.052-0.12-3.923 0.496-0.873 0.587-1.443 1.594-1.744 3.112l-0.902 5.336c-0.36 1.413 0.016 2.676 0.992 3.518 0.737 0.707 1.669 1.203 2.781 1.474 1.653 0.421 3.593 0.797 5.938 1.127 2.21 0.315 4.449 0.557 6.645 0.707 2.21 0.165 4.344 0.285 6.449 0.391 2.104 0.105 3.998 0.165 5.697 0.165 4.329 0 8.628-0.421 12.807-1.277 4.225-0.872 8.013-2.36 11.229-4.435 3.277-2.074 5.938-4.855 7.907-8.237 1.984-3.383 2.992-7.562 2.992-12.417 0-2.165-0.211-4.209-0.646-6.118-0.451-1.939-1.278-3.818-2.466-5.577-1.143-1.714-2.646-3.458-4.465-5.171-1.804-1.714-4.104-3.518-6.854-5.321l-13.98-9.23c-2.615-1.698-4.645-3.292-6.013-4.75-1.202-1.278-1.789-2.676-1.789-4.254 0-1.984 0.421-3.503 1.263-4.63 0.902-1.218 2.074-2.195 3.457-2.901 1.489-0.782 3.066-1.293 4.856-1.563 1.879-0.315 3.607-0.466 5.276-0.466 4.238 0 8.493 0.135 12.627 0.391 4.074 0.271 7.471 0.556 10.102 0.842 1.443 0.24 2.66-0.015 3.593-0.706 0.932-0.691 1.534-1.774 1.743-3.232l0.782-5.126c0.195-1.143 0.315-2.57-0.481-3.473-0.558-0.693-1.52-1.129-3.114-1.429z"/>
<path d="m3808.8 929.77h-7.501c-1.203 0-2.314 0.437-3.337 1.293-0.962 0.842-1.608 1.834-1.925 3.097l-13.904 79.882v0.631c0 2.525 1.504 4.028 4.028 4.028h7.501c1.203 0 2.315-0.436 3.338-1.292 0.977-0.842 1.607-1.849 1.924-3.097l13.89-79.611 0.015-0.902c-1e-3 -2.526-1.504-4.029-4.029-4.029z"/>
</g>
<path d="m1389.6 525.9c0.842-6.389-0.496-8.177-0.917-8.567-1.007-0.902-3.894-2.781-12.071-5.187-19.422-5.141-40.046-8.959-61.182-11.334-21.24-2.375-42.316-3.593-62.64-3.593-46.42 0-85.218 11.604-115.34 34.514-30.035 22.804-49.847 60.476-58.896 111.95-0.827 3.322-1.608 7.847-2.375 13.725-0.827 6.103-1.849 12.416-3.051 18.91-1.624 7.306-3.021 15.318-4.194 23.946-0.812 5.638-1.503 11.214-2.12 16.807-0.571 5.456-0.872 11.003-0.872 16.476 0 14.882 1.879 29.268 5.606 42.722 3.684 13.378 9.456 25.329 17.152 35.521 7.667 10.147 17.769 18.4 30.02 24.519 12.281 6.133 27.329 9.245 44.751 9.245 15.574 0 30.786-2.541 45.202-7.576 14.401-5.021 29.885-13.891 45.984-26.353l7.471-5.787-3.713 26.697c-0.827 4.073 0.436 5.216 0.857 5.592 1.503 1.354 3.322 1.999 5.577 1.999h61.558c2.42 0 5.592-0.36 6.87-2.074 1.503-1.999 2.57-4.314 3.277-7.08l53.049-305.07zm-129.11 223.98-1.593 0.887c-10.207 5.712-21.045 10.778-32.199 15.032-11.44 4.374-22.759 6.584-33.658 6.584-15.017 0-25.344-4.254-30.696-12.642-5.006-7.832-7.546-17.258-7.546-28.021 0-6.659 0.631-13.574 1.879-20.579l10.854-63.331c4.509-25.089 11.981-44.346 22.188-57.273 10.583-13.379 27.54-20.158 50.404-20.158 8.478 0 17.122 0.405 25.705 1.218 8.523 0.826 15.618 1.623 21.301 2.45l3.923 0.556-30.562 175.28z" fill="#000100"/>
<path d="m1732.1 502.04h-91.11c-1.924 0-4.18 0.511-6.72 1.533-2.465 0.992-5.126 3.082-7.922 6.223l-119.58 141.17 45.953-258.45c0.602-2.48 0.437-4.314-0.45-5.818-0.632-1.097-2.841-1.729-6.028-1.729h-73.012c-3.337 0-5.667 0.782-7.126 2.375-1.788 1.939-2.976 4.149-3.637 6.795l-77.176 437.82c-0.556 3.037-0.256 5.096 0.902 6.133 1.488 1.368 3.307 2.029 5.562 2.029h73.027c2.225 0 4.329-0.946 6.434-2.9 2.27-2.104 3.683-4.359 4.314-6.855l26.246-149.71 66.699 149.06c1.368 3.143 3.187 5.758 5.412 7.803 1.909 1.743 3.908 2.6 6.148 2.6h88.706c3.863 0 4.314-1.322 4.495-1.894 0.691-2.044 0.661-3.713-0.09-5.216l-86.301-170.15 146.68-154.64c1.729-1.743 2.571-3.262 2.571-4.6-1e-3 -0.512-1e-3 -1.579-4-1.579z" fill="#000100"/>
<path d="m1863.6 508.45c0-4.735-1.669-6.403-6.404-6.403h-73.628c-2.24 0-4.239 0.856-6.133 2.601-2.075 1.909-3.383 4.044-4.014 6.554l-56.657 321.36 0.06 1.759c0 4.284 1.519 5.802 5.802 5.802h73.613c2.3 0 4.435-0.887 6.539-2.69 2.225-1.909 3.608-4.014 4.225-6.464l56.597-322.52z" fill="#000100"/>
<path d="m2023.2 390.77c0-4.284-1.519-5.803-5.803-5.803h-73.628c-2.3 0-4.434 0.887-6.539 2.691-2.225 1.908-3.593 4.014-4.209 6.464l-77.191 437.83 0.061 1.143c0 2.255 0.571 3.983 1.729 5.276 0.676 0.751 1.894 1.743 4.69 1.743h73.614c2.179 0 4.148-0.916 6.027-2.795 2.135-2.135 3.488-4.42 4.134-6.961l77.115-439.59z" fill="#000100"/>
<path d="m2167.5 390.77c0-4.284-1.519-5.803-5.803-5.803h-73.628c-2.3 0-4.435 0.887-6.539 2.691-2.225 1.908-3.593 4.014-4.209 6.464l-77.191 437.83 0.061 1.143c0 2.255 0.571 3.983 1.729 5.276 0.677 0.751 1.895 1.743 4.69 1.743h73.613c2.18 0 4.148-0.916 6.028-2.795 2.135-2.135 3.488-4.42 4.134-6.961l77.115-439.59z" fill="#000100"/>
<path d="m2293.8 508.45c0-4.735-1.684-6.403-6.419-6.403h-73.613c-2.255 0-4.254 0.842-6.133 2.586-2.074 1.908-3.383 4.059-4.028 6.584l-56.657 321.35 0.061 1.759c0 4.284 1.518 5.802 5.802 5.802h73.629c2.285 0 4.419-0.887 6.539-2.69 2.209-1.894 3.593-4.014 4.209-6.464l56.61-322.52z" fill="#000100"/>
<g fill="#000100">
<path d="m2519.8 549.29h67.329c13.274 0 16.852-8.012 17.813-12.777l1.203-6.043 0.09-3.307c0-6.449-2.961-9.14-5.486-10.282-2.436-1.053-5.396-1.594-8.794-1.594h-65.736l8.809-51.485v-3.021c0-8.193-4.675-13.078-12.477-13.078h-6.629c-4.555 0-8.344 1.639-11.26 4.84-2.54 2.766-4.329 6.238-5.352 10.478l-8.989 52.268h-56.477c-3.758 0-7.2 0.632-10.222 1.864-3.863 1.623-6.419 5.065-7.591 10.327l-1.294 6.915v2.42c0 2.932 1.038 12.477 14.281 12.477h54.853l-41.277 232.31c-1.263 7.096-1.909 13.665-1.909 19.527 0 18.444 5.862 31.793 17.407 39.716 11.019 7.546 26.412 11.379 45.759 11.379 5.276 0 10.763-0.105 16.476-0.331 5.862-0.21 11.154-0.736 15.738-1.578 5.487-1.007 9.14-2.556 11.5-4.9 2.27-2.285 3.713-5.156 4.3-8.554l0.661-4.359v-1.804c0-6.734-4.45-9.079-6.358-9.756-2.736-1.007-5.817-1.519-9.125-1.519h-28.968c-10.643 0-19-1.202-24.818-3.562-4.494-1.834-6.764-7.592-6.764-17.151 0-3.653 0.586-8.869 1.729-15.483l41.578-233.94z"/>
<path d="m2674 515.29h-6.645c-6.073 0-10.327 1.849-12.627 5.457-1.698 2.646-2.991 5.817-3.983 9.831l-53.125 301.2c-0.826 5.231 0.046 9.381 2.586 12.356 2.525 2.962 6.434 4.465 11.635 4.465h3.623c6.479 0 10.854-1.729 13.379-5.246 1.969-2.69 3.412-5.938 4.435-10.041l53.14-301.2c0.871-5.547 0.029-9.861-2.511-12.808-2.241-2.66-5.578-4.013-9.907-4.013z"/>
<path d="m2705 406.65c-2.479-3.247-6.704-4.886-12.566-4.886h-3.623c-4.044 0-7.666 0.933-10.778 2.736-3.698 2.18-5.997 6.269-7.035 12.477l-5.749 30.727c-1.098 4.931-0.542 9.004 1.623 12.101 2.345 3.367 6.449 5.006 12.537 5.006h3.623c4.118 0 7.816-1.082 11.003-3.202 3.457-2.285 5.757-6.344 6.81-12.025l5.72-30.561c1.337-5.126 0.811-9.291-1.565-12.373z"/>
<path d="m2953.7 538.08 0.602-4.224 0.06-3.684c0-3.683-1.773-10.177-13.68-12.401-12.477-1.608-25.344-2.946-38.257-3.954-13.138-1.021-24.623-1.548-34.153-1.548-22.218 0-42.196 3.578-59.377 10.628-17.258 7.065-32.125 17.287-44.195 30.41-11.98 13.003-21.947 28.771-29.629 46.871-7.651 18.009-13.424 38.257-17.137 60.204l-6.795 40.392c-2.51 14.702-3.788 29.178-3.788 43.023 0 15.618 1.938 30.26 5.728 43.533 3.893 13.469 10.102 25.119 18.489 34.635 8.403 9.561 19.196 17.092 32.079 22.353 12.777 5.247 28.291 7.907 46.089 7.907 9.711 0 21.181-0.511 35.056-1.533 13.814-1.037 27.238-2.375 40.016-3.983 5.307-0.978 9.095-2.511 11.575-4.721 2.556-2.27 4.314-5.486 5.427-10.041l0.662-4.87v-1.805c0-2.646-0.992-11.274-13.711-11.274l-2.961 0.061c-28.621 3.562-52.793 5.366-71.84 5.366-25.81 0-44.225-6.253-54.717-18.595-10.673-12.522-16.085-31.087-16.085-55.214 0-6.81 0.392-13.754 1.173-20.609 0.812-7.291 1.818-14.941 2.991-22.699l6.645-40.422c2.735-16.896 7.005-32.725 12.702-47.021 5.592-14.13 13.019-26.562 22.112-36.995 8.975-10.326 19.723-18.459 31.959-24.201 12.191-5.713 26.758-8.599 43.309-8.599 19.016 0 42.661 1.819 70.606 5.427h2.405c3.968 0 7.456-0.797 10.372-2.391 3.517-1.938 5.682-5.411 6.268-10.026z"/>
<path d="m3212.1 523.86h-0.016c-12.913-2.811-28.562-5.472-46.555-7.907-18.114-2.435-36.078-3.683-53.396-3.683-21.301 0-40.392 2.841-56.731 8.418-16.506 5.622-31.012 14.731-43.128 27.059-12.011 12.251-22.083 28.065-29.93 47.036-7.726 18.73-14.115 41.579-18.985 67.945l-12.071 68.188c-2.044 11.409-3.097 21.436-3.097 29.779 0 15.438 2.36 29.012 6.99 40.361 4.63 11.409 11.214 21.105 19.557 28.816 8.283 7.667 18.204 13.379 29.464 16.987 11.108 3.562 23.255 5.366 36.107 5.366 18.685 0 37.265-3.998 55.244-11.86 14.341-6.254 28.562-12.974 42.346-19.978l-1.97 10.928c-0.451 0.962-0.676 1.97-0.676 3.007 0 8.944 5.111 14.28 13.68 14.28h4.824c4.465 0 8.404-1.684 11.695-4.976 3.007-2.991 5.052-6.614 6.119-10.913l51.381-292.88c0-0.406 0.045-0.602 0.029-0.602 0.376-1.082 0.571-2.3 0.571-3.623 2e-3 -3.41-1.486-9.467-11.452-11.753zm-165.75 295.57c-8.599 0-16.821-0.767-24.442-2.314-7.336-1.458-13.92-4.33-19.572-8.523-5.562-4.119-10.026-9.996-13.303-17.468-3.353-7.591-5.037-17.828-5.037-30.425 0-7.862 0.978-17.333 2.932-28.156l12.071-68.217c6.674-38.438 18.625-68.382 35.536-88.991 16.49-20.083 41.174-30.26 73.373-30.26 14.221 0 28.877 0.797 43.533 2.375 12.627 1.368 23.781 2.901 33.191 4.555l-40.451 231.63c-20.551 10.989-38.544 19.813-53.471 26.231-14.851 6.343-29.779 9.56-44.36 9.56z"/>
<path d="m3405.9 542.59c3.923-1.608 6.493-5.337 7.65-11.229l0.632-5.096 0.03-2.119c0-7.366-4.75-9.741-6.795-10.418-2.961-0.977-6.81-1.458-11.725-1.458-15.273 0-29.75 2.225-43.068 6.584-10.763 3.533-22.924 9.125-36.197 16.671l0.586-3.111 0.061-0.661c0.391-0.947 0.586-2.075 0.586-3.383 0-8.192-5.111-13.078-13.68-13.078h-4.825c-4.465 0-8.418 1.684-11.74 4.976-2.977 2.992-5.021 6.614-6.089 10.914l-53.184 301.32v1.819c0 8.944 5.336 14.28 14.281 14.28h3.622c4.405 0 8.298-1.533 11.575-4.555 3.066-2.826 5.156-6.373 6.238-10.732l46.676-262.15c18.835-10.433 34.619-17.558 46.931-21.181 12.597-3.668 24.638-5.517 35.821-5.517 5.488 0 9.622-0.616 12.614-1.879z"/>
<path d="m3630.8 542.5c-8.479-9.53-19.452-17.046-32.59-22.353-13.033-5.216-28.667-7.877-46.48-7.877-41.368 0-75.433 12.732-101.2 37.837-25.585 24.893-42.737 61.978-50.96 110.28l-6.613 39.761c-1.264 7.065-2.09 14.251-2.48 21.361-0.422 7.064-0.632 13.754-0.632 19.888 0 19.437 2.931 36.378 8.688 50.343 5.832 14.115 14.191 25.781 24.863 34.665 10.583 8.823 23.256 15.423 37.672 19.602 14.28 4.119 30.034 6.224 46.855 6.224 13.68 0 28.982-0.947 45.457-2.811 16.34-1.864 32.41-4.495 47.713-7.803 5.066-0.932 8.508-1.983 10.793-3.307 2.992-1.699 5.111-5.246 6.675-11.109l0.933-3.532c0.736-1.519 1.082-3.503 1.082-6.238 0-2.21-0.857-9.455-11.876-9.455-2.962 0-5.201 0.271-6.403 0.722-15.152 3.187-30.906 5.592-46.842 7.14-35.807 3.578-61.392 3.112-80.572-1.397-10.312-2.405-19.257-6.555-26.562-12.297-7.141-5.667-12.748-13.529-16.656-23.345-3.998-10.012-6.012-23.075-6.012-38.844 0-5.457 0.391-11.439 1.156-17.769 0.828-6.613 1.624-13.529 2.406-20.624l1.247-8.644h199.34c4.284 0 8.298-1.458 11.89-4.314 3.639-2.841 6.029-6.464 7.141-10.943l3.007-16.37c2.466-14.642 3.728-28.696 3.728-41.79 0-15.228-1.998-29.599-5.952-42.691-4.016-13.23-10.345-24.775-18.823-34.306zm-125.54 10.583v-0.015c12.026-5.307 26.321-7.997 42.497-7.997 26.216 0 44.945 6.133 55.68 18.249 10.838 12.267 16.324 30.636 16.324 54.582 0 6.224-0.375 12.522-1.172 19.287-0.782 6.674-1.789 13.949-2.962 21.722h-179.29c3.502-17.047 8.298-32.636 14.266-46.375 6.224-14.311 13.965-26.607 23.029-36.573 8.944-9.861 19.588-17.573 31.628-22.88z"/>
<path d="m3877 516.9-0.03-0.015c-2.42-1.053-5.366-1.594-8.778-1.594h-65.736l8.809-51.485v-3.021c0-8.193-4.676-13.078-12.477-13.078h-6.629c-4.57 0-8.359 1.639-11.26 4.84-2.541 2.766-4.33 6.238-5.352 10.478l-9.005 52.268h-56.462c-3.758 0-7.199 0.632-10.236 1.864-3.878 1.639-6.419 5.096-7.576 10.327l-1.293 6.915v2.42c0 2.932 1.037 12.477 14.281 12.477h54.838l-41.279 232.32c-1.248 7.14-1.895 13.709-1.895 19.512 0 18.415 5.863 31.778 17.393 39.716 11.033 7.546 26.428 11.379 45.773 11.379 5.276 0 10.764-0.105 16.476-0.331 5.923-0.21 11.063-0.722 15.739-1.578 5.427-1.007 9.185-2.601 11.484-4.886 2.285-2.3 3.729-5.171 4.314-8.568l0.661-4.359v-1.804c0-4.765-2.33-8.312-6.358-9.756-2.721-1.007-5.787-1.519-9.125-1.519h-28.967c-10.644 0-19.001-1.202-24.818-3.562-4.495-1.818-6.766-7.592-6.766-17.151 0-3.729 0.587-8.93 1.729-15.483l41.579-233.93h67.33c13.244 0 16.836-7.997 17.812-12.777l1.248-6.464 0.045-2.886c1e-3 -6.467-2.974-9.158-5.469-10.27z"/>
</g>
<g>
<g>
<linearGradient id="c" x1="323.29" x2="593.71" y1="830.75" y2="398.08" gradientUnits="userSpaceOnUse">
<stop stop-color="#0047D6" offset="0"/>
<stop stop-color="#01D6FF" offset=".8588"/>
</linearGradient>
<path d="m461.12 938.48c-13.749-14.076-24.808-32.18-32.868-53.8-7.995-21.399-12.048-46.981-12.048-76.034 0-17.544 1.896-36.551 5.625-56.431l16.333-89.827c7.458-40.391 19.188-74.697 34.862-101.96 15.763-27.451 34.895-49.927 56.865-66.806 21.926-16.833 46.572-29.076 73.261-36.389 16.688-4.562 33.888-7.685 51.398-9.365l-186.51-107.68c-57.094-32.964-128.46 8.24-128.46 74.167v494.45c0 65.927 71.368 107.13 128.46 74.168l30.612-17.675c-14.031-6.691-26.632-15.653-37.528-26.814z" fill="url(#c)"/>
<linearGradient id="b" x1="498.38" x2="768.8" y1="940.18" y2="507.51" gradientUnits="userSpaceOnUse">
<stop stop-color="#0047D6" offset="0"/>
<stop stop-color="#01D6FF" offset=".8588"/>
</linearGradient>
<path d="m685.02 535.96c-43.83 0-77.46 11.544-99.957 34.312-23.043 23.319-38.794 58.394-46.816 104.25l-16.342 93.51c-1.145 6.272-2.012 12.923-2.576 19.784-0.575 6.866-0.867 13.57-0.867 19.924 0 31.604 6.534 53.521 19.425 65.144 13.4 12.094 29.188 17.972 48.266 17.972 19.491 0 39.026-4.257 58.058-12.65 18.833-8.312 40.095-20.225 63.246-35.432l52.586-299.98c-8.735-1.559-17.799-2.966-27.069-4.204-13.068-1.741-29.202-2.624-47.954-2.624z" fill="url(#b)"/>
<linearGradient id="a" x1="645.31" x2="915.73" y1="1032" y2="599.34" gradientUnits="userSpaceOnUse">
<stop stop-color="#0047D6" offset="0"/>
<stop stop-color="#01D6FF" offset=".86"/>
</linearGradient>
<path d="m896.24 587.41-37.33-21.553-37.305 212.98 74.635-43.091c57.094-32.963 57.094-115.37 0-148.33z" fill="url(#a)"/>
</g>
<g fill="#603A8D" opacity=".4">
<path d="m461.12 938.48c-13.749-14.076-24.808-32.18-32.868-53.8-7.995-21.399-12.048-46.981-12.048-76.034 0-17.544 1.896-36.551 5.625-56.431l16.333-89.827c7.458-40.391 19.188-74.697 34.862-101.96 15.763-27.451 34.895-49.927 56.865-66.806 16.19-12.43 33.872-22.338 52.757-29.625-18.776 6.947-36.635 16.605-53.288 28.913-22.875 16.918-43.477 39.813-61.233 68.053-17.653 28.044-32.083 63.624-42.884 105.74 0 0-19.492 69.415-22.863 87.648-3.37 18.232-9.796 46.639-11.333 65.051-2.545 30.49-0.838 57.484 5.074 80.232 5.956 22.981 15.141 42.381 27.298 57.651 9.95 12.505 21.879 22.61 35.497 30.226l2e-3 -1e-3c1.502-0.65 2.998-1.341 4.487-2.077 1.552-0.778 3.099-1.584 4.632-2.469l30.612-17.675c-14.03-6.689-26.631-15.651-37.527-26.812z"/>
<path d="m682.44 542.96c18.263 0.679 33.899 2.188 46.474 4.489 8.919 1.634 17.624 3.438 25.994 5.391l-76.182 307.65c9.207-5.295 18.78-11.18 28.728-17.714l52.586-299.98c-8.735-1.559-17.799-2.966-27.069-4.204-13.068-1.74-29.203-2.623-47.955-2.623-43.83 0-77.46 11.544-99.957 34.312-5.769 5.838-11.08 12.415-15.928 19.711 4.13-5.261 8.401-10.238 12.954-14.635 23.904-23.079 57.668-33.976 100.36-32.389z"/>
</g>
</g>
</g>
</svg>
